<?xml version="1.0" standalone="no"?><svg xmlns="http://www.w3.org/2000/svg" viewBox="0 0 1440 320"><path fill="#DCDFD9" fill-opacity="1" d="M0,96L20,122.7C40,149,80,203,120,202.7C160,203,200,149,240,154.7C280,160,320,224,360,224C400,224,440,160,480,122.7C520,85,560,75,600,80C640,85,680,107,720,96C760,85,800,43,840,69.3C880,96,920,192,960,240C1000,288,1040,288,1080,256C1120,224,1160,160,1200,117.3C1240,75,1280,53,1320,58.7C1360,64,1400,96,1420,112L1440,128L1440,320L1420,320C1400,320,1360,320,1320,320C1280,320,1240,320,1200,320C1160,320,1120,320,1080,320C1040,320,1000,320,960,320C920,320,880,320,840,320C800,320,760,320,720,320C680,320,640,320,600,320C560,320,520,320,480,320C440,320,400,320,360,320C320,320,280,320,240,320C200,320,160,320,120,320C80,320,40,320,20,320L0,320Z"></path></svg>